<?xml version="1.0" encoding="iso-8859-1"?>
<!-- Generator: Adobe Illustrator 19.0.0, SVG Export Plug-In . SVG Version: 6.00 Build 0)  -->
<svg version="1.1" xmlns="http://www.w3.org/2000/svg" xmlns:xlink="http://www.w3.org/1999/xlink" x="0px" y="0px"
	 viewBox="0 0 90 90" style="enable-background:new 0 0 90 90;" xml:space="preserve">
<g id="Capa_2">
	<g id="XMLID_3_">
		<path id="XMLID_13_" style="fill:#727176;" d="M84.296,60.668l-3.532-7.971c-0.66-1.489-1.5-2.439-2.522-2.851
			c-1.022-0.412-2.153-0.293-3.394,0.356c-1.154,0.604-1.928,1.462-2.322,2.573c-0.394,1.113-0.248,2.449,0.439,4.009l0.012,0.027
			l0,0c0.132,0.3,1.587,3.606,1.596,3.627l1.898,4.313l0,0c0.005,0.01,0.012,0.027,0.012,0.027c0.661,1.502,1.505,2.462,2.533,2.878
			c1.028,0.416,2.166,0.296,3.413-0.361c1.159-0.611,1.933-1.477,2.324-2.598C85.142,63.577,84.99,62.234,84.296,60.668z"/>
		<path id="XMLID_10_" style="fill:#727176;" d="M86.894,36.241l-0.008,0c0.112-1.42-0.005-2.77-0.369-4.044
			c-0.384-1.346-1.023-2.526-1.917-3.541c-0.893-1.014-1.959-1.794-3.197-2.338c-1.019-0.488-2.185-0.812-3.499-0.972
			c-1.314-0.16-2.907-0.24-4.779-0.241l-33.764-0.016c-1.181-0.001-2.171,0.172-2.97,0.519c-0.799,0.347-1.421,0.9-1.865,1.66
			c-0.444,0.761-0.736,1.742-0.875,2.946l-3.503,30.354l-13.288-0.001l3.641-30.415c0.205-1.711-0.032-2.984-0.71-3.82
			c-0.678-0.835-1.645-1.253-2.901-1.254c-1.238-0.001-2.288,0.421-3.15,1.265c-0.863,0.844-1.398,2.113-1.606,3.805L8.19,62.352
			c-0.226,1.846,0.014,3.184,0.72,4.012c0.707,0.829,1.983,1.243,3.827,1.243l20.447,0c0.089,0,4.606,0.122,5.208-5.225l0.413-3.663
			l1.077-9.565l4.121,0.001c1.266,0,2.251-0.285,2.956-0.856c0.705-0.571,1.111-1.341,1.217-2.311
			c0.107-0.969-0.124-1.743-0.692-2.322c-0.568-0.579-1.492-0.868-2.774-0.869l-4.113-0.001l1.286-11.416l25.917,0.004l2.032,0.001
			c2.871,0.001,4.774,0.209,5.708,0.623c0.988,0.433,1.73,1.088,2.223,1.965c0.494,0.877,0.683,1.891,0.568,3.043l0.007,0l0,0
			c-0.172,0.931-0.528,1.771-1.092,2.509c-0.672,0.88-1.548,1.537-2.628,1.973c-1.022,0.417-2.975,0.698-5.856,0.697l-1.991,0.102
			l-10.211-0.03c-1.187,0.028-2.167,0.292-2.999,1.097C52.7,44.2,52.172,45.5,51.979,47.268l-0.658,6.048
			c-0.11,1.009-0.22,2.02-0.324,2.984c-0.362,3.332-0.662,6.084-0.662,6.084c-0.186,1.711,0.043,3.009,0.687,3.895
			c0.645,0.886,1.642,1.329,2.991,1.329c1.254,0,2.315-0.424,3.184-1.271c0.868-0.847,1.397-2.165,1.587-3.952l0.645-6.083
			l0.316-2.984c0.209-1.973,0.396-3.738,0.513-4.843l10.511,0.002c1.887,0,3.509-0.08,4.865-0.242
			c1.356-0.161,2.596-0.489,3.721-0.984c1.356-0.551,2.585-1.339,3.685-2.365c1.1-1.025,1.975-2.214,2.625-3.569
			c0.65-1.353,1.059-3.325,1.206-4.836L86.894,36.241z"/>
		<path id="XMLID_4_" style="fill:#727176;" d="M86.941,36.417l-0.008,0c0.112-1.42-0.005-2.77-0.369-4.044
			c-0.384-1.346-1.023-2.526-1.917-3.541c-0.893-1.014-1.959-1.794-3.197-2.338c-1.019-0.488-2.185-0.812-3.499-0.972
			c-1.314-0.16-2.907-0.24-4.779-0.241l-33.764-0.016c-1.181-0.001-2.171,0.172-2.97,0.519c-0.799,0.347-1.421,0.9-1.865,1.66
			c-0.444,0.761-0.736,1.742-0.875,2.946l-3.503,30.354l-13.288-0.001l3.641-30.415c0.205-1.711-0.032-2.984-0.71-3.82
			c-0.678-0.835-1.645-1.253-2.901-1.254c-1.238-0.001-2.288,0.421-3.15,1.265c-0.863,0.844-1.398,2.113-1.606,3.805L8.237,62.528
			c-0.226,1.846,0.014,3.184,0.72,4.012c0.707,0.829,1.983,1.243,3.827,1.243l20.447,0c0.089,0,4.606,0.122,5.208-5.225l0.413-3.663
			l1.077-9.565l4.121,0.001c1.266,0,2.251-0.285,2.956-0.856c0.705-0.571,1.111-1.341,1.217-2.311
			c0.107-0.969-0.124-1.743-0.692-2.322c-0.568-0.579-1.492-0.868-2.774-0.869l-4.113-0.001l1.286-11.416l25.917,0.004l2.032,0.001
			c2.871,0.001,4.774,0.209,5.708,0.623c0.988,0.433,1.73,1.088,2.223,1.965c0.494,0.877,0.683,1.891,0.568,3.043l0.007,0l0,0
			c-0.172,0.931-0.528,1.771-1.092,2.509c-0.672,0.88-1.548,1.537-2.628,1.973c-1.022,0.417-2.973,0.624-5.855,0.624l-2.039-0.001
			l-10.13-0.007l-0.001,0.01c-1.187,0.028-2.2,0.435-3.033,1.24c-0.864,0.835-1.392,2.135-1.584,3.903l-0.658,6.048
			c-0.11,1.009-0.22,2.02-0.324,2.984c-0.362,3.332-0.662,6.084-0.662,6.084c-0.186,1.711,0.043,3.009,0.687,3.895
			c0.645,0.886,1.642,1.329,2.991,1.329c1.254,0,2.315-0.424,3.184-1.271c0.868-0.847,1.397-2.165,1.587-3.952l0.645-6.083
			l0.316-2.984c0.209-1.973,0.396-3.738,0.513-4.843l10.511,0.002c1.887,0,3.509-0.08,4.865-0.242
			c1.356-0.161,2.596-0.489,3.721-0.984c1.356-0.551,2.585-1.339,3.685-2.365c1.1-1.025,1.975-2.214,2.625-3.569
			c0.65-1.353,1.059-3.325,1.206-4.836L86.941,36.417z"/>
	</g>
</g>
<g id="Capa_3">
	<g id="XMLID_1_">
		<path id="XMLID_11_" style="fill:#444242;" d="M83.587,60.752l-4.336-7.918c-0.812-1.483-1.754-2.43-2.823-2.841
			c-1.07-0.411-2.197-0.292-3.38,0.356c-1.1,0.602-1.791,1.457-2.073,2.565c-0.282,1.108,0.002,2.436,0.851,3.986l0.015,0.027l0,0
			c0.163,0.298,1.959,3.577,1.97,3.597l2.337,4.267l0,0c0.006,0.01,0.015,0.027,0.015,0.027c0.812,1.483,1.753,2.43,2.823,2.841
			c1.07,0.411,2.197,0.292,3.38-0.356c1.1-0.602,1.791-1.457,2.073-2.565S84.436,62.302,83.587,60.752z"/>
		<path id="XMLID_12_" style="fill:#BF0411;" d="M83.799,36.357l-0.008,0c-0.027-1.43-0.279-2.791-0.773-4.076
			c-0.523-1.359-1.287-2.551-2.295-3.577c-1.007-1.026-2.166-1.815-3.478-2.366c-1.083-0.494-2.299-0.822-3.649-0.983
			c-1.349-0.162-2.974-0.242-4.874-0.242H34.477c-1.197,0-2.181,0.176-2.95,0.527c-0.77,0.352-1.335,0.912-1.696,1.682
			c-0.361,0.77-0.542,1.763-0.542,2.979v30.357H15.977V30.243c0-1.729-0.394-3.017-1.183-3.862s-1.82-1.268-3.093-1.268
			c-1.254,0-2.266,0.428-3.036,1.283c-0.77,0.855-1.154,2.138-1.154,3.848v32.181c0,1.824,0.404,3.145,1.211,3.962
			c0.808,0.817,2.133,1.226,3.976,1.226h20.437c0.089,0,4.619,0.12,4.619-5.159v-3.627v-9.513h4.146
			c1.273,0,2.233-0.285,2.879-0.855c0.646-0.57,0.969-1.34,0.969-2.309c0-0.969-0.318-1.744-0.955-2.323
			c-0.637-0.58-1.601-0.869-2.893-0.869h-4.146v-11.48l26.231-0.007h2.057c2.907,0,4.855,0.209,5.843,0.627
			c1.045,0.437,1.862,1.097,2.451,1.981c0.589,0.884,0.884,1.905,0.884,3.064l0.007,0v0c-0.079,0.936-0.354,1.781-0.848,2.523
			c-0.589,0.884-1.406,1.544-2.451,1.981c-0.988,0.418-2.936,0.627-5.843,0.627h-2.057l-10.081-0.004
			c-0.004,0-0.007-0.001-0.011-0.001c-0.004,0-0.007,0.001-0.011,0.001l-0.116,0v0.01c-1.194,0.029-2.172,0.437-2.923,1.243
			c-0.779,0.836-1.169,2.138-1.169,3.905v6.03c0,1.004,0,2.008,0,2.967c0,3.306,0,6.03,0,6.03c0,1.691,0.371,2.974,1.112,3.848
			c0.741,0.874,1.786,1.311,3.135,1.311c1.254,0,2.271-0.418,3.05-1.254s1.169-2.138,1.169-3.905v-6.03v-2.967
			c0-1.964,0-3.724,0-4.828h10.581c1.9,0,3.525-0.081,4.874-0.242c1.349-0.162,2.565-0.489,3.649-0.983
			c1.311-0.551,2.47-1.34,3.478-2.366c1.007-1.026,1.772-2.219,2.295-3.577s0.741-3.34,0.741-4.86L83.799,36.357z"/>
	</g>
</g>
</svg>
